<svg xmlns="http://www.w3.org/2000/svg" data-name="Layer 1" viewBox="0 0 100 125" x="0px" y="0px"><path  d="M84.08,66.64,95.45,84.52a2.59,2.59,0,0,1-2.59,3.94l-8.63-1.37a2.34,2.34,0,0,0-2.61,1.66l-2.43,8.39a2.59,2.59,0,0,1-4.67.67L63.19,80a15.87,15.87,0,0,0,4.94.79A16.14,16.14,0,0,0,79.53,76,15.86,15.86,0,0,0,84,66.7ZM7.14,88.46l8.63-1.37a2.34,2.34,0,0,1,2.61,1.66l2.43,8.39a2.59,2.59,0,0,0,4.67.67L36.81,80a15.87,15.87,0,0,1-4.94.79A16.14,16.14,0,0,1,20.47,76,15.85,15.85,0,0,1,16,66.7l-.07-.06L4.55,84.52A2.59,2.59,0,0,0,7.14,88.46Zm7.15-43.9a8,8,0,0,0,0-9.52,8,8,0,0,1,4-12.38A8,8,0,0,0,23.91,15,8,8,0,0,1,34.44,7.3,8,8,0,0,0,37,7.72a8,8,0,0,0,6.51-3.36A7.92,7.92,0,0,1,50,1h0a7.92,7.92,0,0,1,6.51,3.36A8,8,0,0,0,63,7.72a8,8,0,0,0,2.55-.42A8,8,0,0,1,76.09,15a8,8,0,0,0,5.6,7.71,8,8,0,0,1,4,12.38,8,8,0,0,0,0,9.52,8,8,0,0,1-4,12.38,8,8,0,0,0-5.6,7.7,8,8,0,0,1-10.53,7.65,8,8,0,0,0-9.06,2.94A7.92,7.92,0,0,1,50,78.59h0a7.92,7.92,0,0,1-6.51-3.36,8,8,0,0,0-9.06-2.94,8,8,0,0,1-10.53-7.65,8,8,0,0,0-5.6-7.7A8,8,0,0,1,14.29,44.56Zm22.62-4.38,8.69,10a2.23,2.23,0,0,0,3.33,0L63,34.8A2.22,2.22,0,0,0,63,31.72L60.5,29.25a2.23,2.23,0,0,0-3-.09L47.2,38.21l-4.76-3.72a2.23,2.23,0,0,0-2.95.18L37,37.15A2.23,2.23,0,0,0,36.91,40.18Z"/></svg>
