<svg xmlns="http://www.w3.org/2000/svg" xmlns:xlink="http://www.w3.org/1999/xlink" version="1.1" x="0px" y="0px" viewBox="0 0 50.4 63" enable-background="new 0 0 50.4 50.4" xml:space="preserve"><g><g><circle cx="25.488" cy="15.645" r="1.383"/><circle cx="32.123" cy="16.759" r="1.32"/><circle cx="32.865" cy="13.563" r="1.006"/><path d="M26.589,12.131c-0.237,0.503-0.836,0.718-1.339,0.48c-0.5-0.236-0.716-0.836-0.48-1.338    c0.238-0.503,0.838-0.718,1.34-0.48C26.611,11.03,26.827,11.628,26.589,12.131z"/><circle cx="30.429" cy="19.606" r="1.005"/><circle cx="28.703" cy="17.229" r="1.068"/><circle cx="29.386" cy="13.868" r="1.572"/></g></g><g><g><path d="M24.112,27.41c-1.971,0.108-3.884,0.154-5.714,0.154c-5.879,0-10.896-0.475-14.242-0.904l4.098,8.197    c0,0,1.063,1.701,2.765,2.622c1.304,0.708,2.736,0.797,3.419,0.795l-1.136,2.464c-0.393,0.853-0.02,1.863,0.833,2.258    c0.231,0.106,0.473,0.157,0.711,0.157c0.644,0,1.26-0.369,1.546-0.99l1.798-3.902h13.237l1.798,3.902    c0.287,0.621,0.902,0.99,1.548,0.99c0.237,0,0.479-0.051,0.71-0.157c0.854-0.395,1.228-1.405,0.833-2.258l-1.142-2.478h0.307    c0,0,1.348-0.073,2.693-0.712c1.582-0.747,2.412-2.479,2.412-2.479l5.087-11.23C41.057,25.159,33.451,26.899,24.112,27.41z"/><path d="M1.104,24.774c0.114,0.028,1.22,0.367,2.363,0.526c0.987,0.138,11.672,1.463,20.574,0.835    c13.052-0.922,22.674-3.854,25.289-4.79c0.036-0.015,0.103-0.043,0.12-0.049c0.734-0.312,1.077-1.161,0.764-1.896    c-0.312-0.734-1.159-1.079-1.897-0.766c-0.057,0.025-3.477,1.444-9.139,2.784c-1.063-1.082-2.751-1.362-4.125-0.568l-3.47,2.009    c-0.946,0.137-1.911,0.268-2.917,0.378l-7.633-6.969c-0.015-0.014-0.033-0.022-0.05-0.036c-0.062-0.054-0.13-0.097-0.198-0.143    c-0.065-0.044-0.13-0.09-0.2-0.126c-0.033-0.017-0.063-0.042-0.096-0.058c-0.269-0.149-0.562-0.256-0.891-0.256h-8.084    c-1.034,0-1.872,0.838-1.872,1.872c0,1.034,0.838,1.873,1.872,1.873h4.729l-2.421,4.191C6.702,23.131,1.857,21.98,1.789,21.964    c-0.78-0.188-1.56,0.287-1.748,1.063C-0.147,23.803,0.328,24.585,1.104,24.774z M19.822,21.706l1.507,2.028    c-0.917,0.021-1.812,0.026-2.689,0.019L19.822,21.706z"/></g><path d="M38.673,19.253L38.673,19.253l0.007,0.004c0.555,0.342,3.422,1.521,6.634-1.489c1.289-1.311,1.9-3.306,1.9-3.306   s-1.372,0.618-2.442,0.205c-0.725-0.281-1.446-1.148-1.583-1.319c-0.333-0.377-0.748-0.697-1.232-0.917   c-1.89-0.857-4.118-0.001-4.978,1.906C36.146,16.196,36.905,18.338,38.673,19.253z"/></g></svg>
